<?xml version="1.0" standalone="no"?>
<!DOCTYPE svg PUBLIC "-//W3C//DTD SVG 20010904//EN"
 "http://www.w3.org/TR/2001/REC-SVG-20010904/DTD/svg10.dtd">
<svg version="1.0" xmlns="http://www.w3.org/2000/svg"
 width="300.000000pt" height="300.000000pt" viewBox="0 0 300.000000 300.000000"
 preserveAspectRatio="xMidYMid meet">
<metadata>
Created by potrace 1.10, written by Peter Selinger 2001-2011
</metadata>
<g transform="translate(0.000000,300.000000) scale(0.100000,-0.100000)"
fill="#ebeced" stroke="none">
<path d="M790 2842 c0 -10 111 -65 117 -58 3 3 -22 19 -56 35 -34 17 -61 28
-61 23z"/>
<path d="M2773 2830 c-56 -23 -68 -111 -20 -145 69 -48 163 17 135 95 -10 29
-52 61 -80 59 -7 0 -23 -4 -35 -9z m75 -20 c24 -15 32 -27 32 -49 0 -43 -35
-81 -74 -81 -68 0 -95 81 -42 127 33 28 42 28 84 3z"/>
<path d="M2102 2797 c5 -18 13 -44 16 -59 l7 -27 49 37 c31 23 44 38 35 41 -8
2 -37 12 -66 22 l-51 17 10 -31z m40 4 c13 -5 32 -12 42 -16 18 -5 16 -8 -12
-25 -18 -11 -34 -20 -36 -20 -4 0 -26 58 -26 66 0 6 7 5 32 -5z"/>
<path d="M407 2574 c-13 -13 -7 -24 14 -24 11 0 19 5 17 12 -5 14 -22 21 -31
12z"/>
<path d="M1325 2537 c-17 -33 -17 -35 1 -65 16 -28 24 -32 59 -32 36 0 42 4
60 36 11 21 15 38 9 42 -5 4 -14 16 -20 27 -8 14 -23 21 -51 23 -36 3 -41 0
-58 -31z m105 -7 c28 -66 -56 -113 -91 -51 -15 26 -15 30 0 55 23 39 74 37 91
-4z"/>
<path d="M1962 2254 c4 -21 22 -23 26 -1 2 10 -3 17 -13 17 -10 0 -15 -6 -13
-16z"/>
<path d="M170 2106 c0 -4 10 -20 21 -36 17 -22 21 -38 16 -69 -3 -23 -2 -41 3
-41 12 0 17 52 8 86 -7 27 -48 78 -48 60z"/>
<path d="M2513 2092 c-33 -2 -43 -7 -42 -20 0 -10 3 -12 6 -4 3 7 24 12 54 12
l49 0 0 -50 0 -50 -49 0 -50 0 -4 38 c-4 36 -4 36 -5 -8 l-2 -45 61 1 61 0 2
61 c1 69 -1 71 -81 65z"/>
<path d="M854 2042 c-12 -10 -34 -27 -49 -39 l-28 -22 18 -61 18 -60 62 0 61
0 22 62 c12 33 21 62 20 63 -2 1 -26 17 -53 37 -48 34 -51 35 -71 20z m79 -44
l28 -23 -16 -52 -16 -52 -51 2 c-47 1 -52 4 -65 34 -23 57 -21 69 22 101 43
31 49 31 98 -10z"/>
<path d="M1555 1812 c-12 -13 -3 -32 15 -32 13 0 20 7 20 18 0 17 -23 26 -35
14z"/>
<path d="M1966 1495 c-54 -19 -104 -72 -121 -128 -8 -27 -10 -47 -5 -47 6 0
10 7 10 16 0 58 90 154 144 154 14 0 26 5 26 10 0 13 -6 12 -54 -5z"/>
<path d="M350 1447 c0 -7 -11 -45 -24 -85 -13 -40 -20 -74 -16 -77 3 -2 17 31
30 73 13 42 25 83 28 90 2 6 -1 12 -7 12 -6 0 -11 -6 -11 -13z"/>
<path d="M2690 1446 c0 -8 4 -17 9 -20 11 -7 33 18 24 27 -12 12 -33 7 -33 -7z"/>
<path d="M877 1344 c14 -41 15 -42 33 -26 11 9 17 18 15 20 -3 3 -11 -1 -20
-8 -9 -7 -15 -8 -15 -2 0 6 -3 18 -6 27 -7 16 -5 16 26 0 23 -12 35 -14 43 -6
8 8 4 11 -15 11 -15 0 -29 4 -32 9 -3 5 -14 11 -25 14 -18 4 -18 3 -4 -39z"/>
<path d="M2275 1112 c-95 -20 -126 -154 -51 -220 50 -43 98 -57 149 -42 47 13
84 36 74 47 -4 3 -16 -2 -27 -12 -27 -25 -109 -31 -146 -12 -41 21 -72 58 -74
87 -5 58 1 80 31 109 41 42 89 42 130 2 34 -35 36 -59 8 -95 -22 -28 -48 -33
-80 -16 -34 19 -21 80 17 80 31 0 43 -28 21 -45 -24 -17 -21 -28 3 -15 43 23
9 90 -39 75 -27 -8 -44 -51 -30 -78 16 -30 28 -37 66 -37 36 0 73 41 73 82 0
50 -71 101 -125 90z"/>
<path d="M2285 1011 c-3 -5 -1 -12 5 -16 5 -3 10 1 10 9 0 18 -6 21 -15 7z"/>
<path d="M605 870 c-3 -5 1 -10 9 -10 19 0 21 -21 4 -38 -10 -10 -8 -14 10
-18 23 -7 29 -19 12 -29 -12 -8 -13 -25 -2 -25 5 0 14 11 20 24 10 21 8 26 -8
31 -22 7 -26 20 -10 30 16 10 12 23 -9 35 -13 7 -22 7 -26 0z"/>
<path d="M1354 869 c-10 -17 13 -36 27 -22 12 12 4 33 -11 33 -5 0 -12 -5 -16
-11z"/>
<path d="M2050 540 c0 -11 7 -20 15 -20 8 0 15 6 15 14 0 8 -7 16 -15 20 -10
4 -15 -1 -15 -14z"/>
<path d="M2700 305 l0 -45 -50 0 -50 0 0 -50 c0 -27 5 -50 10 -50 6 0 9 3 9 8
-1 4 -1 24 0 45 l1 39 48 -7 47 -6 -2 51 -2 51 52 -6 c37 -4 46 -2 32 4 -11 5
-37 10 -57 10 l-38 1 0 -45z"/>
<path d="M210 317 c0 -10 14 -39 31 -63 17 -25 29 -47 27 -49 -1 -1 -17 0 -35
2 -30 5 -31 7 -27 42 l4 36 -13 -40 c-12 -38 -12 -40 8 -43 11 -2 37 -7 58
-12 l38 -8 -18 26 c-9 15 -30 50 -45 77 -15 28 -28 42 -28 32z"/>
<path d="M770 260 c0 -13 7 -20 20 -20 13 0 20 7 20 20 0 13 -7 20 -20 20 -13
0 -20 -7 -20 -20z"/>
<path d="M1436 175 c-43 -16 -66 -33 -66 -46 0 -5 18 2 40 16 58 36 124 35
178 -5 23 -17 42 -26 42 -20 0 17 -74 57 -115 63 -24 4 -55 0 -79 -8z"/>
</g>
</svg>
